<?xml version="1.0" encoding="utf-8"?>
<!-- Generator: Adobe Illustrator 23.0.3, SVG Export Plug-In . SVG Version: 6.00 Build 0)  -->
<svg version="1.1" id="Calque_1" xmlns="http://www.w3.org/2000/svg" xmlns:xlink="http://www.w3.org/1999/xlink" x="0px" y="0px"
	 viewBox="0 0 2464.1 542.3" style="enable-background:new 0 0 2464.1 542.3;" xml:space="preserve">
<style type="text/css">
	.st0{fill:#FE0034;}
	.st1{fill:none;}
	.st2{font-family:'OpenSans-Bold';}
	.st3{font-size:150px;}
</style>
<title>logoCNA</title>
<path class="st0" d="M0.5,542c-6-5,43.5-72.9,45.7-76c47.6-65.1,94-107.4,113-124c30.1-26.3,67.6-58.8,125-88
	c46.8-23.9,78.1-39.8,122-38c49.5,2,85.6,25.3,107,39c51.8,33.3,83.3,78.6,81,81c-0.7,0.8-14.2-9.5-41-30
	c-35.7-27.2-38.1-29.9-48-35c-7.9-4.1-32-15.6-63-15c-5.7,0.1-23.9,0.8-39,12c-8.2,6.1-8.2,9.8-8,11c0.8,6.2,12.2,9.3,15,10
	c17.9,4.8,26.9-4,44-5c19.6-1.1,45.8,8.3,54,28c6.3,15.2,4.1,35.5-4,39c-3.5,1.5-6.6-0.7-15-4c-3.2-1.3-12.8-3.5-32-8
	c-23.2-5.4-60.5-9.3-73-10c-87.7-4.6-195,56-195,56C67.9,453.6,7.4,547.8,0.5,542z"/>
<path d="M80.2,405c-2.5-2.1,14.1-29.8,33-52c7.8-9.2,12.5-13.3,21-25c10-13.8,10.1-17.2,19-28c11.1-13.5,14.1-11.9,22-23
	c11-15.4,5.2-20.1,15-30c12.6-12.8,24-9.9,35-25c2.8-3.8,7.9-10.8,10-21c2-9.5-0.1-14.9,4-21c3.5-5.3,7.8-3.7,14-9
	c4.9-4.2,7.5-9.3,10-16.1c8.9-24.9,14.9-50.6,18-76.9c3.1-31.7,8.5-78.1,11-78c2.2,0.1,6.9,35,7,68c0,7.7-0.1,24.7,10,40
	c1.9,2.9,1.6,1.8,7,9c11.4,15.2,12.3,19.5,21,30c4.1,4.9,7.8,9.4,14,14c5.1,3.8,10,7.5,17,9c11.5,2.5,14.9-3.9,23-1
	c7.8,2.8,6.8,9.4,17,20c11.1,11.5,21.7,13.6,21,16c-1,3.5-24.1-2.5-45-3c-16.4-0.4-37.8,2.3-80,23c-51.6,25.3-97.5,59.5-143,101
	C111.8,371.1,83.2,407.5,80.2,405z"/>
<path d="M384.5,389.7H227.6c0,0-11.1-1.2-11.3,10.3s0,71.1,0,71.1s0.7,7.8,9,8.1c8.3,0.4,159.2,0,159.2,0v-14.3H236.8
	c0,0-3.9,0.5-3.9-3.4s0-54.9,0-54.9s-0.4-2.6,3.4-2.6c3.7,0,148.2,0,148.2,0V389.7z"/>
<polygon points="402.7,391.5 402.7,479.3 421.6,479.3 421.6,412.5 567.7,479.3 573.2,479.3 573.2,391.5 556.6,391.5 556.8,458.5 
	408.9,391.5 "/>
<path d="M748.6,391.5c-12.2-0.4-147.2,0-147.2,0s-9.5,2.3-9.7,9s0,78.9,0,78.9h18.2v-35.6h135v35.6h16.6v-76.9
	C761.5,402.4,760.8,391.8,748.6,391.5z M744.9,431.3H607.8c0,0,0-18.1,0-22.6s5.2-4.7,5.2-4.7s121.4,0,125.9,0s6,4.9,6,4.9V431.3z"
	/>
<rect x="828" y="120.6" class="st1" width="1546.4" height="301"/>
<text transform="matrix(1 0 0 1 2255.1392 234.6395)" class="st2 st3"> </text>
<text transform="matrix(1 0 0 1 828.0393 414.6395)" class="st2 st3">d</text>
<text transform="matrix(1 0 0 1 922.9393 414.6395)" class="st2 st3">’Avranches</text>
<text transform="matrix(1 0 0 1 573.2002 234.6393)" class="st0 st2 st3">Cercle des Nageurs</text>
</svg>
